<?xml version="1.0" standalone="no"?>
<!DOCTYPE svg PUBLIC "-//W3C//DTD SVG 1.1//EN" "http://www.w3.org/Graphics/SVG/1.1/DTD/svg11.dtd">
<svg t="1626251681961" class="icon" viewBox="0 0 1024 1024" version="1.1" xmlns="http://www.w3.org/2000/svg" p-id="23847" xmlns:xlink="http://www.w3.org/1999/xlink" width="200" height="200">
  <defs>
    <style type="text/css">
</style>
  </defs>
  <path d="M865 257H159c-12.8 0-23.1 10.4-23.1 23.1V708.3h752.4V280.1c-0.1-12.7-10.5-23.1-23.3-23.1z" fill="#3E4959" p-id="23848"></path>
  <path d="M159 281.3h706.1v405.1H159z" fill="#3A6EFF" p-id="23849"></path>
  <path d="M176.3 292.9h671.3v46.3H176.3z" fill="#6E7782" p-id="23850"></path>
  <path d="M773.7 316m-8.1 0a8.1 8.1 0 1 0 16.2 0 8.1 8.1 0 1 0-16.2 0Z" fill="#FFC12A" p-id="23851"></path>
  <path d="M808.5 316m-8.1 0a8.1 8.1 0 1 0 16.2 0 8.1 8.1 0 1 0-16.2 0Z" fill="#FFC12A" p-id="23852"></path>
  <path d="M176.3 338.6h671.3v324.1H176.3z" fill="#FFFFFF" p-id="23853"></path>
  <path d="M587.4 350.2h231.5v300.9H587.4z" fill="#003DF0" p-id="23854"></path>
  <path d="M897.1 767H126.9c-11 0-20-9-20-20v-26.3h810.2V747c0 11-8.9 20-20 20z" fill="#3E4959" p-id="23855"></path>
  <path d="M563.5 739.2h-103c-4 0-7.7-2.1-9.8-5.4l-8.2-13.1h138.9l-8.2 13.1c-2 3.4-5.8 5.4-9.7 5.4z" fill="#FFFFFF" p-id="23856"></path>
  <path d="M201.8 361.8h324.1v69.4H201.8zM201.8 479.7h324.1v34.7H201.8zM201.8 542.2h324.1v34.7H201.8zM201.8 604.8h324.1v34.7H201.8z" fill="#D3E0EA" p-id="23857"></path>
  <path d="M610.5 372.4h185.2v69.4H610.5z" fill="#3A6EFF" p-id="23858"></path>
  <path d="M621 380.5h115.7v11.6H621zM621 401.3h115.7v11.6H621z" fill="#003DF0" p-id="23859"></path>
  <path d="M754.1 403.4h32.4v32.4h-32.4z" fill="#3A6EFF" p-id="23860"></path>
  <path d="M329.1 460.1h265.1v99.4H329.1z" fill="#34D9C9" p-id="23861"></path>
  <path d="M344.1 471.8h165.7v16.6H344.1zM344.1 501.6h165.7v16.6H344.1z" fill="#43FFC9" p-id="23862"></path>
  <path d="M534.6 504.5H581v46.4h-46.4z" fill="#FFFFFF" p-id="23863"></path>
  <path d="M610.5 465.9h185.2v69.4H610.5z" fill="#3A6EFF" p-id="23864"></path>
  <path d="M621 474.1h115.7v11.6H621zM621 494.9h115.7v11.6H621z" fill="#003DF0" p-id="23865"></path>
  <path d="M754.1 496.9h32.4v32.4h-32.4z" fill="#FFFFFF" p-id="23866"></path>
</svg>
