<?xml version="1.0" standalone="no"?><!DOCTYPE svg PUBLIC "-//W3C//DTD SVG 1.1//EN" "http://www.w3.org/Graphics/SVG/1.1/DTD/svg11.dtd"><svg t="1626251341818" class="icon" viewBox="0 0 1024 1024" version="1.1" xmlns="http://www.w3.org/2000/svg" p-id="16550" xmlns:xlink="http://www.w3.org/1999/xlink" width="200" height="200"><defs><style type="text/css"></style></defs><path d="M155.2 976h489.6c67.2 0 123.2-56 123.2-123.2V329.6c0-60.8-43.2-110.4-100.8-121.6-11.2-1.6-24-1.6-36.8 0L155.2 422.4C94.4 483.2 32 569.6 32 636.8v216C32 920 86.4 976 155.2 976z" fill="#E1E1DF" p-id="16551"></path><path d="M736 976H246.4c-67.2 0-123.2-56-123.2-123.2V176c0-60.8 43.2-110.4 100.8-121.6 11.2-1.6 24-1.6 36.8 0L736 115.2c67.2 0 123.2-6.4 123.2 60.8v676.8c-1.6 67.2-56 123.2-123.2 123.2z" fill="#4E8DF6" p-id="16552"></path><path d="M537.6 275.2a177.6 176 90 1 0 352 0 177.6 176 90 1 0-352 0Z" fill="#4E8DF6" p-id="16553"></path><path d="M553.6 113.6c-84.8 86.4-84.8 225.6 0 312s224 86.4 310.4 0 84.8-225.6 0-312c-88-88-225.6-88-310.4 0zM822.4 384c-64 64-166.4 64-230.4 0s-64-168 0-230.4 166.4-64 230.4 0 64 166.4 0 230.4z" fill="#E1E1DF" p-id="16554"></path><path d="M985.6 547.2c8 9.6 8 24-3.2 32l-32 27.2c-9.6 8-24 8-32-3.2l-126.4-150.4c-8-9.6-8-24 3.2-32l32-27.2c9.6-8 24-8 32 3.2l126.4 150.4z" fill="#E1E1DF" p-id="16555"></path><path d="M611.2 200c-6.4-4.8-6.4-12.8-3.2-19.2 1.6-1.6 35.2-48 96-48 22.4 0 46.4 6.4 73.6 22.4 6.4 3.2 8 11.2 4.8 17.6s-11.2 8-17.6 4.8c-22.4-14.4-43.2-19.2-59.2-19.2-41.6 0-68.8 28.8-75.2 36.8 0 1.6-1.6 1.6-1.6 1.6-3.2 3.2-6.4 4.8-11.2 4.8-1.6 0-4.8 0-6.4-1.6zM816 192c0 6.4-6.4 11.2-11.2 11.2-6.4 0-11.2-6.4-11.2-11.2 0-6.4 6.4-11.2 11.2-11.2 6.4 0 11.2 4.8 11.2 11.2z" fill="#2166CC" p-id="16556"></path><path d="M270.4 483.2c-17.6 0-30.4-14.4-30.4-30.4V206.4c0-17.6 14.4-30.4 30.4-30.4 17.6 0 30.4 14.4 30.4 30.4v246.4c0 17.6-14.4 30.4-30.4 30.4z" fill="#FFFFFF" p-id="16557"></path></svg>