<?xml version="1.0" standalone="no"?>
<!DOCTYPE svg PUBLIC "-//W3C//DTD SVG 1.1//EN" "http://www.w3.org/Graphics/SVG/1.1/DTD/svg11.dtd">
<svg t="1626251602486" class="icon" viewBox="0 0 1024 1024" version="1.1" xmlns="http://www.w3.org/2000/svg" p-id="22737" xmlns:xlink="http://www.w3.org/1999/xlink" width="200" height="200">
  <defs>
    <style type="text/css">
</style>
  </defs>
  <path d="M840.192 227.328h-37.376c-2.56 0-4.608-2.048-4.608-4.608s2.048-4.608 4.608-4.608h37.376c2.56 0 4.608 2.048 4.608 4.608s-2.048 4.608-4.608 4.608z" fill="#2B77EF" p-id="22738"></path>
  <path d="M821.76 245.76c-2.56 0-4.608-2.048-4.608-4.608v-37.376c0-2.56 2.048-4.608 4.608-4.608s4.608 2.048 4.608 4.608v37.376c0 2.56-2.048 4.608-4.608 4.608z" fill="#2B77EF" p-id="22739"></path>
  <path d="M532.48 708.096H156.16c-20.48 0-36.864-16.384-36.864-36.864v-2.56c0-20.48 16.384-36.864 36.864-36.864H532.48c20.48 0 36.864 16.384 36.864 36.864v2.56c0 20.48-16.384 36.864-36.864 36.864z" fill="#E3EEFF" p-id="22740"></path>
  <path d="M532.48 842.752h-5.632c-37.376 0-67.072-30.208-67.072-67.072 0-37.376 30.208-67.072 67.072-67.072h5.632v-75.776H182.784v75.776h128c37.376 0 67.072 30.208 67.072 67.072 0 37.376-30.208 67.072-67.072 67.072h-128v75.776H532.48v-75.776z" fill="#E3EEFF" p-id="22741"></path>
  <path d="M553.472 517.12c0-13.824-10.752-25.088-24.576-25.088H278.528c-13.824 0-25.6 11.264-25.6 25.6 0 13.824 11.264 25.6 25.6 25.6h101.888c25.088 0 45.056 19.968 45.056 45.056s-19.968 45.056-45.056 45.056H295.424v50.688h233.472v-50.688h-3.584c-25.088 0-45.056-19.968-45.056-45.056s19.968-45.056 45.056-45.056h4.096c13.312-1.536 24.064-12.288 24.064-26.112zM693.248 842.752H157.696c-20.992 0-37.888 16.896-37.888 37.888 0 20.992 16.896 37.888 37.888 37.888h536.064v-75.776zM707.072 842.752h32.256v75.776h-32.256zM778.752 842.752h20.48v75.776h-20.48zM858.112 842.752h-48.128v75.776h48.128c20.992 0 37.888-16.896 37.888-37.888 0-20.992-16.896-37.888-37.888-37.888z" fill="#E3EEFF" p-id="22742"></path>
  <path d="M476.16 356.352c-18.432 0-33.792-13.824-35.328-32.768-1.536-19.456 12.8-36.864 32.256-38.912 19.456-1.536 36.864 12.8 38.912 32.256 1.536 19.456-12.8 36.864-32.256 38.912-1.024 0-2.56 0.512-3.584 0.512z m0.512-62.976h-2.56c-14.848 1.024-25.6 14.336-24.576 29.184 1.024 14.848 14.336 25.6 29.184 24.576 14.848-1.024 25.6-14.336 24.576-29.184-1.536-13.824-13.312-24.576-26.624-24.576z" fill="#82A0F6" p-id="22743"></path>
  <path d="M879.616 395.776c-2.56 0-4.608-2.048-4.608-4.608v-27.136l-19.456 19.456c-1.536 1.536-4.608 1.536-6.144 0-1.536-1.536-1.536-4.608 0-6.144l19.456-19.456h-27.136c-2.56 0-4.608-2.048-4.608-4.608s2.048-4.608 4.608-4.608h27.136l-19.456-19.456c-1.536-1.536-1.536-4.608 0-6.144 1.536-1.536 4.608-1.536 6.144 0l19.456 19.456v-27.136c0-2.56 2.048-4.608 4.608-4.608s4.608 2.048 4.608 4.608v27.136l19.456-19.456c1.536-1.536 4.608-1.536 6.144 0 1.536 1.536 1.536 4.608 0 6.144l-19.456 19.456h27.136c2.56 0 4.608 2.048 4.608 4.608s-2.048 4.608-4.608 4.608h-27.136l19.456 19.456c1.536 1.536 1.536 4.608 0 6.144-1.536 1.536-4.608 1.536-6.144 0l-19.456-19.456v27.136c0 2.56-2.048 4.608-4.608 4.608z" fill="#82A0F6" p-id="22744"></path>
  <path d="M144.384 532.992c-2.56 0-4.608-2.048-4.608-4.608v-27.136l-19.456 19.456c-1.536 1.536-4.608 1.536-6.144 0-1.536-1.536-1.536-4.608 0-6.144l19.456-19.456h-27.136c-2.56 0-4.608-2.048-4.608-4.608s2.048-4.608 4.608-4.608h27.136l-19.456-19.456c-1.536-1.536-1.536-4.608 0-6.144 1.536-1.536 4.608-1.536 6.144 0l19.456 19.456v-27.136c0-2.56 2.048-4.608 4.608-4.608s4.608 2.048 4.608 4.608v27.136l19.456-19.456c1.536-1.536 4.608-1.536 6.144 0 1.536 1.536 1.536 4.608 0 6.144L155.136 486.4h27.136c2.56 0 4.608 2.048 4.608 4.608s-2.048 4.608-4.608 4.608h-27.136l19.456 19.456c1.536 1.536 1.536 4.608 0 6.144-1.536 1.536-4.608 1.536-6.144 0L148.992 501.76v27.136c0 2.56-2.048 4.096-4.608 4.096z" fill="#82A0F6" p-id="22745"></path>
  <path d="M726.016 356.352h-37.376c-2.56 0-4.608-2.048-4.608-4.608s2.048-4.608 4.608-4.608h37.376c2.56 0 4.608 2.048 4.608 4.608s-2.56 4.608-4.608 4.608z" fill="#2B77EF" p-id="22746"></path>
  <path d="M707.072 374.784c-2.56 0-4.608-2.048-4.608-4.608V332.8c0-2.56 2.048-4.608 4.608-4.608s4.608 2.048 4.608 4.608v37.376c0 2.56-2.048 4.608-4.608 4.608z" fill="#2B77EF" p-id="22747"></path>
  <path d="M881.664 554.496c0 17.92-12.288 32.256-27.136 32.256 14.848 0 27.136 14.336 27.136 32.256 0-17.92 12.288-32.256 27.136-32.256-14.848 0.512-27.136-14.336-27.136-32.256z" fill="#76A6EF" p-id="22748"></path>
  <path d="M144.384 834.56c-11.264 0-19.968-9.216-19.968-19.968s9.216-19.968 19.968-19.968 19.968 9.216 19.968 19.968-8.704 19.968-19.968 19.968z m0-31.232c-6.144 0-11.264 5.12-11.264 11.264 0 6.144 5.12 11.264 11.264 11.264 6.144 0 11.264-5.12 11.264-11.264 0-6.656-5.12-11.264-11.264-11.264zM873.472 785.408c-11.264 0-19.968-9.216-19.968-19.968s9.216-19.968 19.968-19.968 19.968 9.216 19.968 19.968-9.216 19.968-19.968 19.968z m0-31.232c-6.144 0-11.264 5.12-11.264 11.264 0 6.144 5.12 11.264 11.264 11.264 6.144 0 11.264-5.12 11.264-11.264 0-6.656-5.12-11.264-11.264-11.264zM676.864 144.896c-11.264 0-19.968-9.216-19.968-19.968s9.216-19.968 19.968-19.968 19.968 9.216 19.968 19.968-8.704 19.968-19.968 19.968z m0-31.232c-6.144 0-11.264 5.12-11.264 11.264 0 6.144 5.12 11.264 11.264 11.264 6.144 0 11.264-5.12 11.264-11.264 0-6.144-5.12-11.264-11.264-11.264z" fill="#82A0F6" p-id="22749"></path>
  <path d="M165.376 243.712c0 36.352 24.576 66.048 55.296 66.048-30.72 0-55.296 29.696-55.296 66.048 0-36.352-24.576-66.048-55.296-66.048 30.72 0 55.296-29.696 55.296-66.048z" fill="#76A6EF" p-id="22750"></path>
  <path d="M654.336 241.664H289.792c-22.528 0-40.96 18.944-40.96 42.496v559.616c0 23.552 18.432 42.496 40.96 42.496h455.68c22.528 0 40.96-18.944 40.96-42.496V378.88c0-2.048-1.536-3.584-3.584-3.584h-97.28c-15.36 0-27.648-12.8-27.648-28.672V245.248c0-2.048-1.536-3.584-3.584-3.584z" fill="#FFFFFF" p-id="22751"></path>
  <path d="M654.336 241.664H289.792c-22.528 0-40.96 18.944-40.96 42.496v559.616c0 23.552 18.432 42.496 40.96 42.496h455.68c22.528 0 40.96-18.944 40.96-42.496V378.88c0-2.048-1.536-3.584-3.584-3.584h-97.28c-15.36 0-27.648-12.8-27.648-28.672V245.248c0-2.048-1.536-3.584-3.584-3.584z" fill="#FFFFFF" p-id="22752"></path>
  <path d="M654.336 241.664H289.792c-22.528 0-40.96 18.944-40.96 42.496v559.616c0 23.552 18.432 42.496 40.96 42.496h455.68c22.528 0 40.96-18.944 40.96-42.496V378.88c0-2.048-1.536-3.584-3.584-3.584h-97.28c-15.36 0-27.648-12.8-27.648-28.672V245.248c0-2.048-1.536-3.584-3.584-3.584z" fill="#C7DDFF" p-id="22753"></path>
  <path d="M331.776 843.776V284.16c0-23.552 18.432-42.496 40.96-42.496H289.792c-22.528 0-40.96 18.944-40.96 42.496v559.616c0 23.552 18.432 42.496 40.96 42.496h82.944c-22.528 0-40.96-18.944-40.96-42.496z" fill="#FFFFFF" p-id="22754"></path>
  <path d="M528.896 404.992H301.056c-6.656 0-11.776-5.12-11.776-11.776v-7.168c0-6.656 5.12-11.776 11.776-11.776h227.328c6.656 0 11.776 5.12 11.776 11.776v7.168c0 6.656-5.12 11.776-11.264 11.776z" fill="#4F6DE6" p-id="22755"></path>
  <path d="M423.424 491.008H301.056c-6.656 0-11.776-5.12-11.776-11.776v-7.168c0-6.656 5.12-11.776 11.776-11.776h122.368c6.656 0 11.776 5.12 11.776 11.776v7.168c0 6.656-5.12 11.776-11.776 11.776zM390.656 577.536H301.056c-6.656 0-11.776-5.12-11.776-11.776v-7.168c0-6.656 5.12-11.776 11.776-11.776h89.6c6.656 0 11.776 5.12 11.776 11.776v7.168c0 6.144-5.12 11.776-11.776 11.776z" fill="#F68282" p-id="22756"></path>
  <path d="M689.152 374.784H778.24c3.072 0 4.608-4.096 2.56-6.144l-116.736-121.344c-2.048-2.048-6.144-0.512-6.144 2.56v92.672c0.512 17.92 14.336 32.256 31.232 32.256z" fill="#C7DDFF" p-id="22757"></path>
  <path d="M778.24 383.488h-89.088c-22.016 0-39.424-18.432-39.424-40.96V249.856c0-5.12 3.072-9.728 7.68-11.776 4.608-2.048 9.728-0.512 13.312 3.072l116.736 121.344c3.584 3.584 4.608 9.216 2.56 13.824-2.048 4.096-6.656 7.168-11.776 7.168z m-111.104-120.32v79.36c0 12.8 9.728 23.04 21.504 23.04h76.8l-98.304-102.4z" fill="#2B77EF" p-id="22758"></path>
  <path d="M270.336 105.984c0 22.016-14.848 39.424-33.28 39.424 18.432 0 33.28 17.408 33.28 39.424 0-22.016 14.848-39.424 33.28-39.424-18.432 0-33.28-17.408-33.28-39.424z" fill="#76A6EF" p-id="22759"></path>
  <path d="M782.848 375.296H716.8c2.048 0 3.584 1.536 3.584 3.584v464.896c0 23.552-18.432 42.496-40.96 42.496h66.048c22.528 0 40.96-18.944 40.96-42.496V378.88c0-2.048-1.536-3.584-3.584-3.584zM600.576 253.952v100.864c0 15.872 12.288 28.672 27.648 28.672h66.048c-15.36 0-27.648-12.8-27.648-28.672V253.952c0-2.048-1.536-3.584-3.584-3.584h-66.048c2.048 0 3.584 1.536 3.584 3.584z" fill="#76A6EF" p-id="22760"></path>
  <path d="M745.472 894.976h-455.68c-27.648 0-49.664-23.04-49.664-51.2V284.16c0-28.16 22.528-51.2 49.664-51.2h365.056c6.656 0 12.288 5.632 12.288 12.288v100.864c0 11.264 8.704 19.968 18.944 19.968h97.28c6.656 0 12.288 5.632 12.288 12.288v464.896c-0.512 28.672-22.528 51.712-50.176 51.712z m-455.68-644.608c-17.408 0-31.744 14.848-31.744 33.28v559.616c0 18.432 14.336 33.28 31.744 33.28h455.68c17.408 0 31.744-14.848 31.744-33.28V384h-91.648c-20.48 0-36.864-16.896-36.864-37.888V250.368H289.792z" fill="#2B77EF" p-id="22761"></path>
  <path d="M663.04 764.416l41.472 42.496" fill="#C6C6C6" p-id="22762"></path>
  <path d="M704.512 818.176c-3.072 0-6.144-1.024-8.192-3.584l-40.96-42.496c-4.608-4.608-4.096-11.776 0.512-15.872 4.608-4.608 11.776-4.096 15.872 0.512l40.96 42.496c4.608 4.608 4.096 11.776-0.512 15.872-2.048 2.048-5.12 3.072-7.68 3.072z" fill="#2B77EF" p-id="22763"></path>
  <path d="M579.072 520.192c-6.144 0-12.8 0.512-18.944 1.536 64.512 9.728 113.664 66.56 113.664 136.192s-49.664 126.464-113.664 136.192c6.144 1.024 12.288 1.536 18.944 1.536 73.216 0 132.608-61.44 132.608-137.728 0-76.288-59.392-137.728-132.608-137.728z" fill="#76A6EF" p-id="22764"></path>
  <path d="M705.536 807.424l84.48 88.064" fill="#C6C6C6" p-id="22765"></path>
  <path d="M790.016 919.552c-6.144 0-12.8-2.56-17.408-7.168L688.128 824.32c-9.216-9.728-8.704-24.576 0.512-33.792 9.728-9.216 24.576-8.704 33.792 0.512l84.48 87.552c9.216 9.728 8.704 24.576-0.512 33.792-4.096 4.608-10.24 7.168-16.384 7.168z" fill="#2B77EF" p-id="22766"></path>
  <path d="M579.072 804.352c-78.336 0-141.824-65.536-141.824-146.432s63.488-146.432 141.824-146.432 141.824 65.536 141.824 146.432-64 146.432-141.824 146.432z m0-275.456c-68.096 0-123.904 57.856-123.904 128.512s55.296 128.512 123.904 128.512 123.904-57.856 123.904-128.512-55.808-128.512-123.904-128.512z" fill="#2B77EF" p-id="22767"></path>
  <path d="M622.08 588.288c-1.536 0-3.072-0.512-4.608-1.024-8.192-4.608-16.896-8.192-26.624-9.728-5.12-1.024-8.192-5.12-7.168-10.24 1.024-4.608 5.632-8.192 10.24-7.168 11.776 2.048 22.528 5.632 32.768 11.776 4.096 2.56 5.632 8.192 3.072 12.288-2.048 2.56-4.608 4.096-7.68 4.096zM492.032 666.624c-5.12 0-8.704-4.096-8.704-8.704 0-15.872 3.584-31.744 10.752-45.568 11.264-22.016 29.696-38.912 52.224-47.616 4.608-1.536 9.728 0.512 11.264 5.12 1.536 4.608-0.512 9.728-5.12 11.264-18.432 7.168-33.28 20.48-42.496 38.912-5.632 11.776-8.704 24.064-8.704 37.376 0 5.632-4.096 9.216-9.216 9.216z" fill="#2B77EF" p-id="22768"></path>
</svg>
