<svg version="1.1" xmlns="http://www.w3.org/2000/svg" xmlns:xlink="http://www.w3.org/1999/xlink" width="360.21442" height="64.50173" viewBox="0,0,360.21442,64.50173" style="background: #fff;">
  <g transform="translate(-59.89279,-147.74913)">
    <g data-paper-data="{&quot;isPaintingLayer&quot;:true}" fill="#000000" fill-rule="nonzero" stroke="none" stroke-width="1" stroke-linecap="butt" stroke-linejoin="miter" stroke-miterlimit="10" stroke-dasharray="" stroke-dashoffset="0" style="mix-blend-mode: normal">
      <path d="M60.08419,147.74913h359.83162c0.1276,0.01595 0.1914,0.07975 0.1914,0.1914v64.11893c0,0.1276 -0.0638,0.1914 -0.1914,0.1914h-359.83162c-0.1276,0 -0.1914,-0.0638 -0.1914,-0.1914v-64.11893c0.01595,-0.1276 0.07975,-0.1914 0.1914,-0.1914M62.18958,150.04593v59.90814h355.62082v-59.90814h-355.62082M66.01758,152.72553h178.28892c0.1276,0.01595 0.1914,0.07975 0.1914,0.1914v53.87905c0,0.1276 -0.0638,0.1914 -0.1914,0.1914h-178.28892c-0.1276,0 -0.1914,-0.0638 -0.1914,-0.1914v-53.87905c0.01595,-0.1276 0.07975,-0.1914 0.1914,-0.1914M304.88453,162.10412c4.6574,1.0208 6.9861,2.7753 6.9861,5.2635c-0.1914,1.3398 -0.7975,2.00969 -1.8183,2.00969h-0.2871c-0.957,0 -1.5312,-0.6699 -1.7226,-2.00969c-0.62205,-1.4355 -1.80235,-3.12619 -3.5409,-5.0721c0.1595,-0.1276 0.28709,-0.1914 0.3828,-0.1914M348.52368,162.10412l4.49789,1.2441v0.1914c-0.27115,0.4466 -0.78155,0.6699 -1.5312,0.6699c0,0.1276 -0.4785,1.4993 -1.4355,4.11509h7.56029c0.04785,0 0.78155,-0.8613 2.20109,-2.5839c0.9251,0.6061 2.2011,1.6269 3.828,3.0624v0.0957c-0.14355,0.319 -0.46255,0.4785 -0.957,0.4785h-12.91949c-0.14355,0.04785 -0.90915,1.96185 -2.2968,5.742c-0.0957,0.07975 -0.638,1.35575 -1.6269,3.828h4.97639v-6.50759l0.0957,-0.1914c0.27115,0.0638 1.77044,0.2552 4.49789,0.5742v0.28709c-0.2552,0.4466 -0.6699,0.6699 -1.2441,0.6699v5.16779h2.7753c1.0527,-1.5312 1.6907,-2.2968 1.914,-2.2968c0.94105,0.6061 2.02565,1.5312 3.25379,2.7753v0.1914c0,0.1595 -0.2552,0.28709 -0.7656,0.3828h-7.1775v12.63239c0,2.00969 -0.7656,3.31759 -2.2968,3.9237c-0.7337,0.1914 -1.5312,0.3509 -2.3925,0.4785c0,-1.99375 -0.957,-3.17405 -2.87099,-3.5409c-0.7018,-0.07975 -1.0527,-0.20735 -1.0527,-0.3828v-0.0957c0.01595,-0.1276 0.07975,-0.1914 0.1914,-0.1914c2.4563,0.1276 3.9556,0.1914 4.49789,0.1914c0.319,-0.0957 0.4785,-0.319 0.4785,-0.6699v-12.34529h-5.0721l-1.2441,1.2441h-0.0957c-2.1692,-1.4674 -3.25379,-2.233 -3.25379,-2.2968c1.0846,-0.65395 1.6588,-1.13245 1.7226,-1.4355c1.41955,-3.39735 2.47225,-6.10884 3.1581,-8.13449h-4.78499c-0.1595,0 -0.2871,-0.3509 -0.3828,-1.0527h5.64629c1.0208,-2.99859 1.6907,-5.0721 2.0097,-6.22049h0.0957M376.27665,162.19981l4.4022,0.3828v0.0957c0,0.5104 -0.41469,0.8294 -1.2441,0.957v2.5839h7.94309v-3.828c0.01595,-0.1276 0.07975,-0.1914 0.1914,-0.1914c3.0624,0.2233 4.59359,0.4147 4.59359,0.5742c-0.27115,0.5742 -0.71775,0.8613 -1.3398,0.8613v2.5839h4.2108l2.00969,-2.3925h0.1914c1.38765,1.0527 2.50414,2.0097 3.3495,2.87099v0.0957c-0.14355,0.319 -0.46255,0.4785 -0.957,0.4785h-8.80439v2.20109c-0.39875,0.5742 -1.45145,0.8613 -3.1581,0.8613h-0.0957c-0.1276,0 -0.1914,-0.0638 -0.1914,-0.1914v-2.87099h-7.94309v2.39249c0,0.36685 -0.7656,0.62205 -2.2968,0.7656h-0.8613c-0.1276,0 -0.1914,-0.0638 -0.1914,-0.1914v-2.9667h-9.18719c-0.1914,0 -0.319,-0.3509 -0.3828,-1.0527h9.56999v-3.828c0.01595,-0.1276 0.07975,-0.1914 0.1914,-0.1914M282.20365,162.86971h0.1914c2.34465,1.77044 3.71635,2.88694 4.11509,3.3495v0.1914c0,0.1595 -0.2552,0.2871 -0.7656,0.3828h-12.82378v12.34529h5.83769l2.4882,-2.87099c1.9459,1.5631 3.25379,2.6796 3.9237,3.3495v0.1914c0,0.17545 -0.319,0.30305 -0.957,0.3828h-11.29259v13.97219h8.61299l2.4882,-2.9667c2.00969,1.4674 3.4133,2.6158 4.2108,3.4452v0.0957c-0.14355,0.319 -0.46255,0.4785 -0.957,0.4785h-32.82506c-0.1595,0 -0.2871,-0.3509 -0.3828,-1.0527h15.02488v-13.97219h-11.57969c-0.1914,0 -0.319,-0.3509 -0.3828,-1.0527h11.96249v-12.34529h-13.11088c-0.1276,0 -0.2552,-0.319 -0.3828,-0.957l0.1914,-0.0957h24.11637c1.13245,-1.276 1.89805,-2.233 2.2968,-2.87099M339.33649,162.86971c2.2968,2.12135 3.4452,3.23785 3.4452,3.3495c0,0.1595 -0.5742,0.3509 -1.7226,0.5742c-1.54715,3.14215 -3.14215,5.88555 -4.78499,8.23019v0.1914c3.38139,2.3606 5.0721,5.3273 5.0721,8.90009c0,3.509 -1.6269,5.2635 -4.88069,5.2635c-0.11165,-0.27115 -0.23925,-1.03674 -0.3828,-2.2968c0,-0.39875 -0.6061,-0.78155 -1.8183,-1.1484l-0.0957,-0.1914v-0.0957c0.01595,-0.1276 0.07975,-0.1914 0.1914,-0.1914h2.20109c1.0208,0 1.5312,-0.7656 1.5312,-2.2968v-0.0957c0,-2.7434 -0.9251,-5.39109 -2.7753,-7.94309c0.957,-3.38139 1.7226,-6.50759 2.2968,-9.37859h-4.0194v30.14547c-0.5104,0.7656 -1.5631,1.1484 -3.1581,1.1484l-0.0957,-0.1914v-33.59066l3.828,1.4355h3.1581c0.7018,-0.68585 1.3717,-1.29194 2.0097,-1.8183M163.63148,180.6699c0,6.38 2.3925,10.68649 7.1775,12.91949c1.70664,0.7018 3.55684,1.0527 5.55059,1.0527h1.3398c1.54715,0 4.03535,-0.4466 7.46459,-1.3398c0.3828,0 0.5742,-0.319 0.5742,-0.957l0.5742,-5.16779l-0.1914,-0.0957c-0.49445,0 -1.67475,-0.0957 -3.5409,-0.2871c-1.0527,3.0624 -1.8502,4.59359 -2.39249,4.59359c-0.65395,0.3828 -1.51525,0.5742 -2.5839,0.5742h-0.4785c-2.8072,0 -4.7212,-2.1692 -5.742,-6.50759c-0.319,-1.5312 -0.4785,-3.18999 -0.4785,-4.97639v-1.1484c0,-5.08805 1.3398,-8.46944 4.0194,-10.14419c0.7656,-0.2552 1.40359,-0.3828 1.914,-0.3828h0.7656c2.1054,0 3.1581,0.638 3.1581,1.914c0.0638,0.17545 0.4147,1.73855 1.0527,4.68929h4.0194c0.2552,-4.49789 0.3828,-7.1775 0.3828,-8.03879c0.0638,-0.1276 0.0957,-0.2233 0.0957,-0.2871c-3.93965,-0.638 -6.74684,-0.957 -8.42159,-0.957h-0.5742c-5.83769,0 -10.01659,2.7115 -12.53669,8.13449c-0.7656,1.92995 -1.1484,4.06725 -1.1484,6.41189M82.38226,166.41061v2.6796c1.595,0.1595 2.3925,0.51041 2.3925,1.0527c0.319,1.1803 2.7753,9.28289 7.36889,24.30777h5.55059c0.2552,-0.33495 0.957,-2.82314 2.1054,-7.46459c0.4466,-1.32385 1.276,-4.32245 2.4882,-8.99579h0.1914l4.68929,16.46038h5.83769c4.2746,-15.74264 6.60329,-24.06852 6.98609,-24.97767l2.2011,-0.3828v-2.6796h-9.09149v2.4882c0,0.11165 1.0208,0.33495 3.0624,0.6699c0,0.0638 0.0319,0.0957 0.0957,0.0957c-2.99859,12.02629 -4.49789,18.62958 -4.49789,19.80988h-0.0957c-0.14355,0 -0.43065,-1.21219 -0.8613,-3.63659c-0.319,-0.9251 -1.7864,-6.3162 -4.4022,-16.17329c0.17545,-0.1276 1.35574,-0.3509 3.5409,-0.6699v-2.5839h-12.53669v2.6796c1.7864,0.14355 2.6796,0.55825 2.6796,1.2441c0,0.1276 0.2552,0.957 0.7656,2.4882c-2.4882,8.24614 -3.9556,13.70104 -4.4022,16.36469h-0.1914c-0.4466,-2.58389 -1.9778,-8.58109 -4.59359,-17.99158c-0.2552,-0.84535 -0.3828,-1.38765 -0.3828,-1.6269c2.0416,-0.33495 3.0624,-0.55825 3.0624,-0.6699v-2.4882h-11.96249M131.57201,166.41061v2.4882c0,0.11165 0.957,0.33495 2.87099,0.6699l0.0957,0.1914v21.43678c0,0.1914 -0.9251,0.3828 -2.7753,0.5742v2.4882h14.92918v-2.4882c-3.828,-0.1914 -5.742,-0.3828 -5.742,-0.5742v-8.99579h0.8613c0.9889,0 2.3287,0.0319 4.0194,0.0957c0.1276,0.319 0.4147,1.4674 0.8613,3.4452h2.58389v-9.95279h-2.6796c-0.319,1.7864 -0.5742,2.9029 -0.7656,3.3495c-1.61095,0.0638 -2.79125,0.0957 -3.5409,0.0957h-1.1484c-0.1276,0 -0.1914,-0.0638 -0.1914,-0.1914v-9.95279c0.01595,-0.1276 0.07975,-0.1914 0.1914,-0.1914c3.9556,0.2552 6.28429,0.3828 6.9861,0.3828c0.2552,0.55825 0.7656,1.92995 1.5312,4.11509h3.3495c0,-0.8613 -0.1276,-3.19 -0.3828,-6.9861h-21.05398M197.50924,166.41061v2.4882c0,0.11165 0.957,0.33495 2.87099,0.6699l0.0957,0.1914v21.43678c0,0.1914 -0.9251,0.3828 -2.7753,0.5742v2.4882h14.92919v-2.4882c-3.828,-0.1914 -5.742,-0.3828 -5.742,-0.5742v-8.99579h0.8613c0.9889,0 2.32869,0.0319 4.01939,0.0957c0.1276,0.319 0.4147,1.4674 0.8613,3.4452h2.58389v-9.95279h-2.6796c-0.319,1.7864 -0.5742,2.9029 -0.7656,3.3495c-1.61095,0.0638 -2.79125,0.0957 -3.5409,0.0957h-1.1484c-0.1276,0 -0.1914,-0.0638 -0.1914,-0.1914v-9.95279c0.01595,-0.1276 0.07975,-0.1914 0.1914,-0.1914c3.9556,0.2552 6.28429,0.3828 6.98609,0.3828c0.2552,0.55825 0.7656,1.92995 1.5312,4.11509h3.3495c0,-0.8613 -0.1276,-3.19 -0.3828,-6.9861h-21.05398M321.72771,167.17622h0.0957c2.1692,1.6588 3.509,2.7434 4.0194,3.25379v0.0957c-0.14355,0.319 -0.46255,0.4785 -0.957,0.4785h-18.37438c-0.1276,2.15325 -0.3509,4.29055 -0.6699,6.41189h9.95279l2.00969,-1.914c0.2552,0.1276 1.4036,1.0846 3.4452,2.87099c-0.43065,0.4466 -0.94105,0.6699 -1.5312,0.6699c0,3.8599 -0.5742,8.35779 -1.7226,13.49368c-0.8613,2.93479 -2.99859,4.4022 -6.41189,4.4022c-0.27115,-1.6588 -0.62205,-2.4882 -1.0527,-2.4882c-0.5423,-0.4785 -1.7545,-0.9251 -3.6366,-1.33979c-0.1276,0 -0.1914,-0.0638 -0.1914,-0.1914v-0.1914l0.0957,-0.1914c2.7434,0.2552 4.68929,0.3828 5.83769,0.3828c1.4993,0 2.4244,-2.07349 2.7753,-6.22049c0.319,-1.7545 0.5742,-4.49789 0.7656,-8.23019h-10.52698c-0.7975,4.73714 -2.3925,8.69274 -4.78499,11.86679c-2.9029,3.20595 -5.42299,5.24754 -7.56029,6.1248c-0.7018,0.4466 -1.1803,0.6699 -1.4355,0.6699l-0.1914,-0.3828c7.14559,-5.29539 10.71839,-13.87648 10.71839,-25.74328h-10.71839c-0.14355,0 -0.30305,-0.319 -0.4785,-0.957l0.1914,-0.0957h28.13577c0,-0.14355 0.7337,-1.06865 2.20109,-2.7753M385.75094,170.5257c3.12619,0.28709 4.6893,0.5104 4.6893,0.6699c-0.1914,0.5742 -0.638,0.8613 -1.3398,0.8613v2.87099h4.97639c0.04785,-0.01595 0.71774,-0.78155 2.00969,-2.2968c1.22815,0.84535 2.40845,1.77044 3.5409,2.7753v0.0957c-0.14355,0.319 -0.46255,0.4785 -0.957,0.4785h-9.56999v4.8807h4.2108l2.00969,-2.2968c1.32385,0.9889 2.44034,1.9459 3.3495,2.87099c-0.1595,0.319 -0.4147,0.4785 -0.7656,0.4785h-8.80439v5.0721h5.742c0.8613,-1.2441 1.5312,-2.0735 2.0097,-2.4882c1.5631,1.10055 2.7753,2.08945 3.63659,2.9667c0,0.33495 -0.5104,0.52635 -1.5312,0.5742h-9.85709v7.75169c-0.638,0.7656 -1.7226,1.1484 -3.25379,1.1484c-0.1276,0 -0.1914,-0.0638 -0.1914,-0.1914v-26.03037l0.0957,-0.1914M377.52075,170.62141h0.0957c3.12619,0.20735 4.68929,0.39875 4.68929,0.5742v0.0957c0,0.3509 -0.4466,0.638 -1.33979,0.8613v23.63788c-0.62205,0.7656 -1.57905,1.1484 -2.87099,1.1484h-0.3828c-0.1276,0 -0.1914,-0.0638 -0.1914,-0.1914v-8.70869h-10.62269c-0.1595,0 -0.319,-0.319 -0.4785,-0.957l0.1914,-0.0957h10.90979v-5.0721h-8.70869c-0.1914,0 -0.319,-0.3509 -0.3828,-1.0527h9.09149v-4.8807h-9.95279c-0.1595,0 -0.2871,-0.3509 -0.3828,-1.0527h10.33559v-4.30649M344.69568,182.20109c2.98265,1.0527 4.48194,1.6269 4.49789,1.7226c-0.1595,0.3828 -0.638,0.6061 -1.4355,0.6699c-1.51525,3.42924 -4.25865,6.68305 -8.23019,9.76139h-0.0957c-0.0957,0 -0.2233,-0.1276 -0.3828,-0.3828c2.2968,-3.23785 4.147,-7.16154 5.55059,-11.77109h0.0957M355.98827,182.87099c4.78499,2.3925 7.1775,5.1359 7.1775,8.23019c-0.20735,1.5312 -0.74965,2.2968 -1.6269,2.2968h-0.28709c-1.03675,0 -1.61095,-0.7018 -1.7226,-2.1054c-0.319,-1.86615 -1.6269,-4.60954 -3.9237,-8.23019v-0.0957c0.0319,0 0.1595,-0.0319 0.3828,-0.0957z" data-paper-data="{&quot;index&quot;:null}"/>
    </g>
  </g>
</svg>
