<svg version="1.1" xmlns="http://www.w3.org/2000/svg" xmlns:xlink="http://www.w3.org/1999/xlink" width="66.28687" height="65.2134" viewBox="0,0,66.28687,65.2134"><g transform="translate(-206.85656,-147.3933)"><g data-paper-data="{&quot;isPaintingLayer&quot;:true}" fill="#000000" fill-rule="nonzero" stroke="none" stroke-width="1" stroke-linecap="butt" stroke-linejoin="miter" stroke-miterlimit="10" stroke-dasharray="" stroke-dashoffset="0" style="mix-blend-mode: normal"><path d="M207.12493,147.3933h65.75013c0.17891,0.02236 0.26837,0.11182 0.26837,0.26837v64.67666c0,0.17891 -0.08946,0.26837 -0.26837,0.26837h-65.75013c-0.17891,0 -0.26837,-0.08946 -0.26837,-0.26837v-64.67666c0.02236,-0.17891 0.11182,-0.26837 0.26837,-0.26837M209.13769,149.54024v61.0537h61.72462h0.13418v-0.40255v-0.26837c0,-0.08946 0,-0.16773 0,-0.23482v-0.16773v-59.3093c0,-0.08946 0.04473,-0.13418 0.13418,-0.13418c-0.08946,-0.15655 -0.13418,-0.33546 -0.13418,-0.53674h-61.8588M213.16321,151.82137h30.45976c0.17891,0.02236 0.26837,0.11182 0.26837,0.26837v55.68634c0,0.13418 -0.13418,0.26837 -0.40255,0.40255h-30.32557c-0.17891,0 -0.26837,-0.08946 -0.26837,-0.26837v-55.82052c0.02236,-0.17891 0.11182,-0.26837 0.26837,-0.26837M217.99383,160.54333v1.34184l1.20766,0.67092l3.89133,12.47911h2.81786l2.28113,-8.3194h0.26837l2.41531,8.3194h2.95205c2.05749,-7.7603 3.26514,-12.00946 3.62297,-12.74748c0.71565,-0.08946 1.07347,-0.22364 1.07347,-0.40255v-1.34184h-4.42807c-0.17891,0.02236 -0.26837,0.11182 -0.26837,0.26837c0,0.04473 0.04473,0.22364 0.13418,0.53674c-0.08946,0.15655 -0.13418,0.33546 -0.13418,0.53674l1.74439,0.53674c-1.4313,5.43445 -2.2364,8.74432 -2.41531,9.92961h-0.26837c-0.35782,-1.78912 -1.20766,-5.09899 -2.5495,-9.92961c0.246,-0.15655 0.82747,-0.29073 1.74439,-0.40255v-1.47602h-6.30665v1.47602c1.16293,0 1.74439,0.67092 1.74439,2.01276c-1.34184,4.4728 -2.10222,7.20121 -2.28113,8.18522h-0.26837c0,-0.69328 -0.84983,-3.95843 -2.5495,-9.79543c0.246,-0.15655 0.78274,-0.29073 1.61021,-0.40255v-1.47602h-6.03828M251.40564,171.54641h10.46635c0.26837,0 0.40255,0.58146 0.40255,1.74439v1.07347l0.13418,0.67092l-0.26837,0.13418h-1.34184c-0.20128,0 -0.51437,-0.76038 -0.93929,-2.28113h-3.62297l-0.26837,0.13418l0.13418,0.26837v3.22041l-0.13418,1.61021l0.26837,0.13418h2.41531c0.15655,-1.25238 0.33546,-1.87858 0.53674,-1.87858h0.93929c0.17891,0.02236 0.26837,0.11182 0.26837,0.26837v4.69644c0,0.17891 -0.08946,0.26837 -0.26837,0.26837h-0.8051c-0.26837,0 -0.49201,-0.58146 -0.67092,-1.74439h-2.41531l-0.26837,0.13418l0.13418,1.61021v1.34184l-0.13418,1.61021c1.05111,0.08946 1.81148,0.13418 2.28113,0.13418h0.40255c0.13418,0 0.26837,0.13418 0.40255,0.40255v0.67092c0,0.17891 -0.08946,0.26837 -0.26837,0.26837h-7.24593c-0.17891,0 -0.26837,-0.08946 -0.26837,-0.26837v-0.8051c0,-0.20128 0.49201,-0.33546 1.47602,-0.40255v-11.27145c0,-0.15655 -0.53674,-0.33546 -1.61021,-0.53674v-0.93929c0.02236,-0.17891 0.11182,-0.26837 0.26837,-0.26837M221.88517,190.8689c0,3.30987 1.25238,5.54627 3.75715,6.7092c1.05111,0.35782 2.12458,0.53674 3.22041,0.53674c1.00638,0 2.4824,-0.26837 4.42807,-0.8051c0.08946,-0.62619 0.13418,-1.61021 0.13418,-2.95205c-0.89456,-0.08946 -1.34184,-0.17891 -1.34184,-0.26837c-0.22364,0 -0.62619,0.71565 -1.20766,2.14694c-0.46964,0.35782 -0.8722,0.53674 -1.20766,0.53674h-1.20766c-1.96803,-0.51437 -2.95205,-2.39295 -2.95205,-5.63573v-1.07347c0,-3.01914 0.89456,-4.76353 2.68368,-5.23317c0,-0.08946 0.17891,-0.13418 0.53674,-0.13418h0.26837c1.34184,0 2.01276,0.53674 2.01276,1.61021c0.15655,1.07347 0.33546,1.61021 0.53674,1.61021h1.61021c0.17891,0 0.26837,-0.13418 0.26837,-0.40255c0,-0.33546 0.04473,-1.58784 0.13418,-3.75715c-2.46004,-0.26837 -4.02552,-0.40255 -4.69644,-0.40255c-3.19805,0 -5.43445,1.69966 -6.7092,5.09899c-0.17891,0.89456 -0.26837,1.69966 -0.26837,2.41531z" data-paper-data="{&quot;index&quot;:null}"/></g></g></svg>