<svg width="505" height="65" xmlns="http://www.w3.org/2000/svg" version="1.1">
  <g>
    <g id="svg_1">
      <g fill="#000000" fill-rule="nonzero" stroke-miterlimit="10" stroke-dashoffset="0" id="svg_2">
        <path d="m0.1914,0l359.83162,0c0.1276,0.01595 0.1914,0.07975 0.1914,0.1914l0,64.11893c0,0.1276 -0.0638,0.1914 -0.1914,0.1914l-359.83162,0c-0.1276,0 -0.1914,-0.0638 -0.1914,-0.1914l0,-64.11893c0.01595,-0.1276 0.07975,-0.1914 0.1914,-0.1914m2.10539,2.2968l0,59.90814l355.62082,0l0,-59.90814l-355.62082,0m3.828,2.6796l178.28892,0c0.1276,0.01595 0.1914,0.07975 0.1914,0.1914l0,53.87905c0,0.1276 -0.0638,0.1914 -0.1914,0.1914l-178.28892,0c-0.1276,0 -0.1914,-0.0638 -0.1914,-0.1914l0,-53.87905c0.01595,-0.1276 0.07975,-0.1914 0.1914,-0.1914m238.86695,9.37859c4.6574,1.0208 6.9861,2.7753 6.9861,5.2635c-0.1914,1.3398 -0.7975,2.00969 -1.8183,2.00969l-0.2871,0c-0.957,0 -1.5312,-0.6699 -1.7226,-2.00969c-0.62205,-1.4355 -1.80235,-3.12619 -3.5409,-5.0721c0.1595,-0.1276 0.28709,-0.1914 0.3828,-0.1914m43.63915,0l4.49789,1.2441l0,0.1914c-0.27115,0.4466 -0.78155,0.6699 -1.5312,0.6699c0,0.1276 -0.4785,1.4993 -1.4355,4.11509l7.56029,0c0.04785,0 0.78155,-0.8613 2.20109,-2.5839c0.9251,0.6061 2.2011,1.6269 3.828,3.0624l0,0.0957c-0.14355,0.319 -0.46255,0.4785 -0.957,0.4785l-12.91949,0c-0.14355,0.04785 -0.90915,1.96185 -2.2968,5.742c-0.0957,0.07975 -0.638,1.35575 -1.6269,3.828l4.97639,0l0,-6.50759l0.0957,-0.1914c0.27115,0.0638 1.77044,0.2552 4.49789,0.5742l0,0.28709c-0.2552,0.4466 -0.6699,0.6699 -1.2441,0.6699l0,5.16779l2.7753,0c1.0527,-1.5312 1.6907,-2.2968 1.914,-2.2968c0.94105,0.6061 2.02565,1.5312 3.25379,2.7753l0,0.1914c0,0.1595 -0.2552,0.28709 -0.7656,0.3828l-7.1775,0l0,12.63239c0,2.00969 -0.7656,3.31759 -2.2968,3.9237c-0.7337,0.1914 -1.5312,0.3509 -2.3925,0.4785c0,-1.99375 -0.957,-3.17405 -2.87099,-3.5409c-0.7018,-0.07975 -1.0527,-0.20735 -1.0527,-0.3828l0,-0.0957c0.01595,-0.1276 0.07975,-0.1914 0.1914,-0.1914c2.4563,0.1276 3.9556,0.1914 4.49789,0.1914c0.319,-0.0957 0.4785,-0.319 0.4785,-0.6699l0,-12.34529l-5.0721,0l-1.2441,1.2441l-0.0957,0c-2.1692,-1.4674 -3.25379,-2.233 -3.25379,-2.2968c1.0846,-0.65395 1.6588,-1.13245 1.7226,-1.4355c1.41955,-3.39735 2.47225,-6.10884 3.1581,-8.13449l-4.78499,0c-0.1595,0 -0.2871,-0.3509 -0.3828,-1.0527l5.64629,0c1.0208,-2.99859 1.6907,-5.0721 2.0097,-6.22049l0.0957,0m27.75301,0.09569l4.4022,0.3828l0,0.0957c0,0.5104 -0.41469,0.8294 -1.2441,0.957l0,2.5839l7.94309,0l0,-3.828c0.01595,-0.1276 0.07975,-0.1914 0.1914,-0.1914c3.0624,0.2233 4.59359,0.4147 4.59359,0.5742c-0.27115,0.5742 -0.71775,0.8613 -1.3398,0.8613l0,2.5839l4.2108,0l2.00969,-2.3925l0.1914,0c1.38765,1.0527 2.50414,2.0097 3.3495,2.87099l0,0.0957c-0.14355,0.319 -0.46255,0.4785 -0.957,0.4785l-8.80439,0l0,2.20109c-0.39875,0.5742 -1.45145,0.8613 -3.1581,0.8613l-0.0957,0c-0.1276,0 -0.1914,-0.0638 -0.1914,-0.1914l0,-2.87099l-7.94309,0l0,2.39249c0,0.36685 -0.7656,0.62205 -2.2968,0.7656l-0.8613,0c-0.1276,0 -0.1914,-0.0638 -0.1914,-0.1914l0,-2.9667l-9.18719,0c-0.1914,0 -0.319,-0.3509 -0.3828,-1.0527l9.56999,0l0,-3.828c0.01595,-0.1276 0.07975,-0.1914 0.1914,-0.1914m-94.07299,0.66992l0.1914,0c2.34465,1.77044 3.71635,2.88694 4.11509,3.3495l0,0.1914c0,0.1595 -0.2552,0.2871 -0.7656,0.3828l-12.82378,0l0,12.34529l5.83769,0l2.4882,-2.87099c1.9459,1.5631 3.25379,2.6796 3.9237,3.3495l0,0.1914c0,0.17545 -0.319,0.30305 -0.957,0.3828l-11.29259,0l0,13.97219l8.61299,0l2.4882,-2.9667c2.00969,1.4674 3.4133,2.6158 4.2108,3.4452l0,0.0957c-0.14355,0.319 -0.46255,0.4785 -0.957,0.4785l-32.82506,0c-0.1595,0 -0.2871,-0.3509 -0.3828,-1.0527l15.02488,0l0,-13.97219l-11.57969,0c-0.1914,0 -0.319,-0.3509 -0.3828,-1.0527l11.96249,0l0,-12.34529l-13.11088,0c-0.1276,0 -0.2552,-0.319 -0.3828,-0.957l0.1914,-0.0957l24.11637,0c1.13245,-1.276 1.89805,-2.233 2.2968,-2.87099m57.13283,-0.00002c2.2968,2.12135 3.4452,3.23785 3.4452,3.3495c0,0.1595 -0.5742,0.3509 -1.7226,0.5742c-1.54715,3.14215 -3.14215,5.88555 -4.78499,8.23019l0,0.1914c3.38139,2.3606 5.0721,5.3273 5.0721,8.90009c0,3.509 -1.6269,5.2635 -4.88069,5.2635c-0.11165,-0.27115 -0.23925,-1.03674 -0.3828,-2.2968c0,-0.39875 -0.6061,-0.78155 -1.8183,-1.1484l-0.0957,-0.1914l0,-0.0957c0.01595,-0.1276 0.07975,-0.1914 0.1914,-0.1914l2.20109,0c1.0208,0 1.5312,-0.7656 1.5312,-2.2968l0,-0.0957c0,-2.7434 -0.9251,-5.39109 -2.7753,-7.94309c0.957,-3.38139 1.7226,-6.50759 2.2968,-9.37859l-4.0194,0l0,30.14547c-0.5104,0.7656 -1.5631,1.1484 -3.1581,1.1484l-0.0957,-0.1914l0,-33.59066l3.828,1.4355l3.1581,0c0.7018,-0.68585 1.3717,-1.29194 2.0097,-1.8183m-175.70502,17.80018c0,6.38 2.3925,10.68649 7.1775,12.91949c1.70664,0.7018 3.55684,1.0527 5.55059,1.0527l1.3398,0c1.54715,0 4.03535,-0.4466 7.46459,-1.3398c0.3828,0 0.5742,-0.319 0.5742,-0.957l0.5742,-5.16779l-0.1914,-0.0957c-0.49445,0 -1.67475,-0.0957 -3.5409,-0.2871c-1.0527,3.0624 -1.8502,4.59359 -2.39249,4.59359c-0.65395,0.3828 -1.51525,0.5742 -2.5839,0.5742l-0.4785,0c-2.8072,0 -4.7212,-2.1692 -5.742,-6.50759c-0.319,-1.5312 -0.4785,-3.18999 -0.4785,-4.97639l0,-1.1484c0,-5.08805 1.3398,-8.46944 4.0194,-10.14419c0.7656,-0.2552 1.40359,-0.3828 1.914,-0.3828l0.7656,0c2.1054,0 3.1581,0.638 3.1581,1.914c0.0638,0.17545 0.4147,1.73855 1.0527,4.68929l4.0194,0c0.2552,-4.49789 0.3828,-7.1775 0.3828,-8.03879c0.0638,-0.1276 0.0957,-0.2233 0.0957,-0.2871c-3.93965,-0.638 -6.74684,-0.957 -8.42159,-0.957l-0.5742,0c-5.83769,0 -10.01659,2.7115 -12.53669,8.13449c-0.7656,1.92995 -1.1484,4.06725 -1.1484,6.41189m-81.24923,-14.25929l0,2.6796c1.595,0.1595 2.3925,0.51041 2.3925,1.0527c0.319,1.1803 2.7753,9.28289 7.36889,24.30777l5.55059,0c0.2552,-0.33495 0.957,-2.82314 2.1054,-7.46459c0.4466,-1.32385 1.276,-4.32245 2.4882,-8.99579l0.1914,0l4.68929,16.46038l5.83769,0c4.2746,-15.74264 6.60329,-24.06852 6.98609,-24.97767l2.2011,-0.3828l0,-2.6796l-9.09149,0l0,2.4882c0,0.11165 1.0208,0.33495 3.0624,0.6699c0,0.0638 0.0319,0.0957 0.0957,0.0957c-2.99859,12.02629 -4.49789,18.62958 -4.49789,19.80988l-0.0957,0c-0.14355,0 -0.43065,-1.21219 -0.8613,-3.63659c-0.319,-0.9251 -1.7864,-6.3162 -4.4022,-16.17329c0.17545,-0.1276 1.35574,-0.3509 3.5409,-0.6699l0,-2.5839l-12.53669,0l0,2.6796c1.7864,0.14355 2.6796,0.55825 2.6796,1.2441c0,0.1276 0.2552,0.957 0.7656,2.4882c-2.4882,8.24614 -3.9556,13.70104 -4.4022,16.36469l-0.1914,0c-0.4466,-2.58389 -1.9778,-8.58109 -4.59359,-17.99158c-0.2552,-0.84535 -0.3828,-1.38765 -0.3828,-1.6269c2.0416,-0.33495 3.0624,-0.55825 3.0624,-0.6699l0,-2.4882l-11.96249,0m49.18975,-0.00001l0,2.4882c0,0.11165 0.957,0.33495 2.87099,0.6699l0.0957,0.1914l0,21.43678c0,0.1914 -0.9251,0.3828 -2.7753,0.5742l0,2.4882l14.92918,0l0,-2.4882c-3.828,-0.1914 -5.742,-0.3828 -5.742,-0.5742l0,-8.99579l0.8613,0c0.9889,0 2.3287,0.0319 4.0194,0.0957c0.1276,0.319 0.4147,1.4674 0.8613,3.4452l2.58389,0l0,-9.95279l-2.6796,0c-0.319,1.7864 -0.5742,2.9029 -0.7656,3.3495c-1.61095,0.0638 -2.79125,0.0957 -3.5409,0.0957l-1.1484,0c-0.1276,0 -0.1914,-0.0638 -0.1914,-0.1914l0,-9.95279c0.01595,-0.1276 0.07975,-0.1914 0.1914,-0.1914c3.9556,0.2552 6.28429,0.3828 6.9861,0.3828c0.2552,0.55825 0.7656,1.92995 1.5312,4.11509l3.3495,0c0,-0.8613 -0.1276,-3.19 -0.3828,-6.9861l-21.05398,0m65.93725,0l0,2.4882c0,0.11165 0.957,0.33495 2.87099,0.6699l0.0957,0.1914l0,21.43678c0,0.1914 -0.9251,0.3828 -2.7753,0.5742l0,2.4882l14.92919,0l0,-2.4882c-3.828,-0.1914 -5.742,-0.3828 -5.742,-0.5742l0,-8.99579l0.8613,0c0.9889,0 2.32869,0.0319 4.01939,0.0957c0.1276,0.319 0.4147,1.4674 0.8613,3.4452l2.58389,0l0,-9.95279l-2.6796,0c-0.319,1.7864 -0.5742,2.9029 -0.7656,3.3495c-1.61095,0.0638 -2.79125,0.0957 -3.5409,0.0957l-1.1484,0c-0.1276,0 -0.1914,-0.0638 -0.1914,-0.1914l0,-9.95279c0.01595,-0.1276 0.07975,-0.1914 0.1914,-0.1914c3.9556,0.2552 6.28429,0.3828 6.98609,0.3828c0.2552,0.55825 0.7656,1.92995 1.5312,4.11509l3.3495,0c0,-0.8613 -0.1276,-3.19 -0.3828,-6.9861l-21.05398,0m124.2185,0.76561l0.0957,0c2.1692,1.6588 3.509,2.7434 4.0194,3.25379l0,0.0957c-0.14355,0.319 -0.46255,0.4785 -0.957,0.4785l-18.37438,0c-0.1276,2.15325 -0.3509,4.29055 -0.6699,6.41189l9.95279,0l2.00969,-1.914c0.2552,0.1276 1.4036,1.0846 3.4452,2.87099c-0.43065,0.4466 -0.94105,0.6699 -1.5312,0.6699c0,3.8599 -0.5742,8.35779 -1.7226,13.49368c-0.8613,2.93479 -2.99859,4.4022 -6.41189,4.4022c-0.27115,-1.6588 -0.62205,-2.4882 -1.0527,-2.4882c-0.5423,-0.4785 -1.7545,-0.9251 -3.6366,-1.33979c-0.1276,0 -0.1914,-0.0638 -0.1914,-0.1914l0,-0.1914l0.0957,-0.1914c2.7434,0.2552 4.68929,0.3828 5.83769,0.3828c1.4993,0 2.4244,-2.07349 2.7753,-6.22049c0.319,-1.7545 0.5742,-4.49789 0.7656,-8.23019l-10.52698,0c-0.7975,4.73714 -2.3925,8.69274 -4.78499,11.86679c-2.9029,3.20595 -5.42299,5.24754 -7.56029,6.1248c-0.7018,0.4466 -1.1803,0.6699 -1.4355,0.6699l-0.1914,-0.3828c7.14559,-5.29539 10.71839,-13.87648 10.71839,-25.74328l-10.71839,0c-0.14355,0 -0.30305,-0.319 -0.4785,-0.957l0.1914,-0.0957l28.13577,0c0,-0.14355 0.7337,-1.06865 2.20109,-2.7753m64.02323,3.34949c3.12619,0.28709 4.6893,0.5104 4.6893,0.6699c-0.1914,0.5742 -0.638,0.8613 -1.3398,0.8613l0,2.87099l4.97639,0c0.04785,-0.01595 0.71774,-0.78155 2.00969,-2.2968c1.22815,0.84535 2.40845,1.77044 3.5409,2.7753l0,0.0957c-0.14355,0.319 -0.46255,0.4785 -0.957,0.4785l-9.56999,0l0,4.8807l4.2108,0l2.00969,-2.2968c1.32385,0.9889 2.44034,1.9459 3.3495,2.87099c-0.1595,0.319 -0.4147,0.4785 -0.7656,0.4785l-8.80439,0l0,5.0721l5.742,0c0.8613,-1.2441 1.5312,-2.0735 2.0097,-2.4882c1.5631,1.10055 2.7753,2.08945 3.63659,2.9667c0,0.33495 -0.5104,0.52635 -1.5312,0.5742l-9.85709,0l0,7.75169c-0.638,0.7656 -1.7226,1.1484 -3.25379,1.1484c-0.1276,0 -0.1914,-0.0638 -0.1914,-0.1914l0,-26.03037l0.0957,-0.1914m-8.23019,0.09571l0.0957,0c3.12619,0.20735 4.68929,0.39875 4.68929,0.5742l0,0.0957c0,0.3509 -0.4466,0.638 -1.33979,0.8613l0,23.63788c-0.62205,0.7656 -1.57905,1.1484 -2.87099,1.1484l-0.3828,0c-0.1276,0 -0.1914,-0.0638 -0.1914,-0.1914l0,-8.70869l-10.62269,0c-0.1595,0 -0.319,-0.319 -0.4785,-0.957l0.1914,-0.0957l10.90979,0l0,-5.0721l-8.70869,0c-0.1914,0 -0.319,-0.3509 -0.3828,-1.0527l9.09149,0l0,-4.8807l-9.95279,0c-0.1595,0 -0.2871,-0.3509 -0.3828,-1.0527l10.33559,0l0,-4.30649m-32.82508,11.57968c2.98265,1.0527 4.48194,1.6269 4.49789,1.7226c-0.1595,0.3828 -0.638,0.6061 -1.4355,0.6699c-1.51525,3.42924 -4.25865,6.68305 -8.23019,9.76139l-0.0957,0c-0.0957,0 -0.2233,-0.1276 -0.3828,-0.3828c2.2968,-3.23785 4.147,-7.16154 5.55059,-11.77109l0.0957,0m11.2926,0.6699c4.78499,2.3925 7.1775,5.1359 7.1775,8.23019c-0.20735,1.5312 -0.74965,2.2968 -1.6269,2.2968l-0.28709,0c-1.03675,0 -1.61095,-0.7018 -1.7226,-2.1054c-0.319,-1.86615 -1.6269,-4.60954 -3.9237,-8.23019l0,-0.0957c0.0319,0 0.1595,-0.0319 0.3828,-0.0957l-0.00001,0z" id="svg_3"/>
      </g>
    </g>
    <line fill="none" stroke="#000000" x1="374.82435" y1="-0.09041" x2="374.94483" y2="64.6083" id="svg_4" stroke-linejoin="undefined" stroke-linecap="undefined"/>
    <g>
      <g transform="translate(-206.857 -147.393)">
        <g stroke-dashoffset="0" stroke-miterlimit="10" fill-rule="nonzero" fill="#000000">
          <path  d="m597.86611,147.2866l65.75013,0c0.17891,0.02236 0.26837,0.11182 0.26837,0.26837l0,64.67666c0,0.17891 -0.08946,0.26837 -0.26837,0.26837l-65.75013,0c-0.17891,0 -0.26837,-0.08946 -0.26837,-0.26837l0,-64.67666c0.02236,-0.17891 0.11182,-0.26837 0.26837,-0.26837m2.01276,2.14694l0,61.0537l61.72462,0l0.13418,0l0,-0.40255l0,-0.26837c0,-0.08946 0,-0.16773 0,-0.23482l0,-0.16773l0,-59.3093c0,-0.08946 0.04473,-0.13418 0.13418,-0.13418c-0.08946,-0.15655 -0.13418,-0.33546 -0.13418,-0.53674l-61.8588,0m4.02552,2.28112l30.45976,0c0.17891,0.02236 0.26837,0.11182 0.26837,0.26837l0,55.68634c0,0.13418 -0.13418,0.26837 -0.40255,0.40255l-30.32557,0c-0.17891,0 -0.26837,-0.08946 -0.26837,-0.26837l0,-55.82052c0.02236,-0.17891 0.11182,-0.26837 0.26837,-0.26837m4.83061,8.72196l0,1.34184l1.20766,0.67092l3.89133,12.47911l2.81786,0l2.28113,-8.3194l0.26837,0l2.41531,8.3194l2.95205,0c2.05749,-7.7603 3.26514,-12.00946 3.62297,-12.74748c0.71565,-0.08946 1.07347,-0.22364 1.07347,-0.40255l0,-1.34184l-4.42807,0c-0.17891,0.02236 -0.26837,0.11182 -0.26837,0.26837c0,0.04473 0.04473,0.22364 0.13418,0.53674c-0.08946,0.15655 -0.13418,0.33546 -0.13418,0.53674l1.74439,0.53674c-1.4313,5.43445 -2.2364,8.74432 -2.41531,9.92961l-0.26837,0c-0.35782,-1.78912 -1.20766,-5.09899 -2.5495,-9.92961c0.246,-0.15655 0.82747,-0.29073 1.74439,-0.40255l0,-1.47602l-6.30665,0l0,1.47602c1.16293,0 1.74439,0.67092 1.74439,2.01276c-1.34184,4.4728 -2.10222,7.20121 -2.28113,8.18522l-0.26837,0c0,-0.69328 -0.84983,-3.95843 -2.5495,-9.79543c0.246,-0.15655 0.78274,-0.29073 1.61021,-0.40255l0,-1.47602l-6.03828,0m33.41183,11.00306l10.46635,0c0.26837,0 0.40255,0.58146 0.40255,1.74439l0,1.07347l0.13418,0.67092l-0.26837,0.13418l-1.34184,0c-0.20128,0 -0.51437,-0.76038 -0.93929,-2.28113l-3.62297,0l-0.26837,0.13418l0.13418,0.26837l0,3.22041l-0.13418,1.61021l0.26837,0.13418l2.41531,0c0.15655,-1.25238 0.33546,-1.87858 0.53674,-1.87858l0.93929,0c0.17891,0.02236 0.26837,0.11182 0.26837,0.26837l0,4.69644c0,0.17891 -0.08946,0.26837 -0.26837,0.26837l-0.8051,0c-0.26837,0 -0.49201,-0.58146 -0.67092,-1.74439l-2.41531,0l-0.26837,0.13418l0.13418,1.61021l0,1.34184l-0.13418,1.61021c1.05111,0.08946 1.81148,0.13418 2.28113,0.13418l0.40255,0c0.13418,0 0.26837,0.13418 0.40255,0.40255l0,0.67092c0,0.17891 -0.08946,0.26837 -0.26837,0.26837l-7.24593,0c-0.17891,0 -0.26837,-0.08946 -0.26837,-0.26837l0,-0.8051c0,-0.20128 0.49201,-0.33546 1.47602,-0.40255l0,-11.27145c0,-0.15655 -0.53674,-0.33546 -1.61021,-0.53674l0,-0.93929c0.02236,-0.17891 0.11182,-0.26837 0.26837,-0.26837m-29.52046,19.32251c0,3.30987 1.25238,5.54627 3.75715,6.7092c1.05111,0.35782 2.12458,0.53674 3.22041,0.53674c1.00638,0 2.4824,-0.26837 4.42807,-0.8051c0.08946,-0.62619 0.13418,-1.61021 0.13418,-2.95205c-0.89456,-0.08946 -1.34184,-0.17891 -1.34184,-0.26837c-0.22364,0 -0.62619,0.71565 -1.20766,2.14694c-0.46964,0.35782 -0.8722,0.53674 -1.20766,0.53674l-1.20766,0c-1.96803,-0.51437 -2.95205,-2.39295 -2.95205,-5.63573l0,-1.07347c0,-3.01914 0.89456,-4.76353 2.68368,-5.23317c0,-0.08946 0.17891,-0.13418 0.53674,-0.13418l0.26837,0c1.34184,0 2.01276,0.53674 2.01276,1.61021c0.15655,1.07347 0.33546,1.61021 0.53674,1.61021l1.61021,0c0.17891,0 0.26837,-0.13418 0.26837,-0.40255c0,-0.33546 0.04473,-1.58784 0.13418,-3.75715c-2.46004,-0.26837 -4.02552,-0.40255 -4.69644,-0.40255c-3.19805,0 -5.43445,1.69966 -6.7092,5.09899c-0.17891,0.89456 -0.26837,1.69966 -0.26837,2.41531l0.00002,-0.00002z"/>
        </g>
      </g>
    </g>
  </g>
</svg>
